<svg xmlns="http://www.w3.org/2000/svg" viewBox="0 0 65 65">
  <defs>
    <style>
      .cls-1 {
        fill: #da2128;
      }

      .cls-2 {
        fill: #fff;
      }
    </style>
  </defs>
  <g id="Group_136" data-name="Group 136" transform="translate(-1772 -1032)">
    <g id="Group_135" data-name="Group 135" transform="translate(169 -3279)">
      <circle id="Ellipse_13" data-name="Ellipse 13" class="cls-1" cx="32.5" cy="32.5" r="32.5" transform="translate(1603 4311)"/>
      <path id="Path_109" data-name="Path 109" class="cls-2" d="M36.35,12.636C36.35,5.665,29.593,0,21.286,0S6.222,5.665,6.222,12.636s6.756,12.629,15.064,12.629a17.775,17.775,0,0,0,2.086-.119c3.2,2.034,5.561,3.148,7.023,3.3a1.1,1.1,0,0,0,.156.007,1.411,1.411,0,0,0,1.166-.624,1.388,1.388,0,0,0,.052-1.455,7.213,7.213,0,0,1-.817-4.054,11.846,11.846,0,0,0,5.4-9.689Zm-19.155,1.9A2.235,2.235,0,1,1,19.429,12.3a2.237,2.237,0,0,1-2.235,2.235Zm8.182,0A2.235,2.235,0,1,1,27.611,12.3a2.237,2.237,0,0,1-2.235,2.235Zm0,0-15.97,8.2a13.809,13.809,0,0,1-3.5-4.306A11.742,11.742,0,0,1,5.9,7.64c.067-.134.134-.26.208-.386C2.42,9.362,0,12.889,0,16.883a11.016,11.016,0,0,0,5.3,9.139,7.833,7.833,0,0,1-.839,5.063.461.461,0,0,0,.4.69h.052c1.685-.186,4.655-1.9,6.9-3.348a16.988,16.988,0,0,0,2.309.156A16.149,16.149,0,0,0,22.1,26.535c-.5.037-1.017.059-1.529.059A17.449,17.449,0,0,1,9.407,22.741Zm0,0" transform="translate(1617 4328)"/>
    </g>
  </g>
</svg>
