<svg xmlns="http://www.w3.org/2000/svg" viewBox="0 0 463.24 404.689">
  <defs>
    <style>
      .cls-1 {
        fill: #fff;
        opacity: 0.09;
      }
    </style>
  </defs>
  <path id="Path_69" data-name="Path 69" class="cls-1" d="M16.538,310.928c2.383,2.383,6.727,1.822,9.671-1.261s3.223-7.778.561-10.371-6.938-2.032-9.67,1.261S14.085,308.545,16.538,310.928Zm18.991-31.885c-2.453,3.013-2.453,7.5.14,10.091a6.623,6.623,0,0,0,9.46-.491,7.3,7.3,0,0,0-.14-10.091A6.281,6.281,0,0,0,35.529,279.043ZM11,374.066c4.415-2.733,6.167-6.727,3.994-8.9s-7.288-1.542-11.422,1.472A14.576,14.576,0,0,0,0,370.282v5.606C2.172,377.36,6.867,376.659,11,374.066Zm-9.39,16.4A3.249,3.249,0,0,0,0,389.623v5.816C2.1,393.617,2.873,391.655,1.612,390.464Zm9.04-44.568c2.172,2.172,6.938,1.612,10.581-1.4,3.644-2.943,4.625-7.358,2.172-9.811s-7.218-1.822-10.581,1.4C9.46,339.379,8.479,343.723,10.652,345.9ZM0,400.135v4.555H9.18c2.453-1.612,3.434-3.364,2.172-4.625C9.671,398.453,4.835,398.523,0,400.135ZM9.6,293.058c2.523-3.5,2.453-8.479-.14-11.072S2.8,280.234.491,283.948a5.791,5.791,0,0,0-.491.911v9.39a7.448,7.448,0,0,0,.631.771C3.013,297.473,7.078,296.562,9.6,293.058Zm22.845,33.777c2.383,2.383,7.078,2.172,10.371-.561s3.924-7.078,1.261-9.67c-2.593-2.663-7.288-2.383-10.371.561C30.553,320.038,29.993,324.382,32.445,326.835Zm28.941,7.008c-2.593-2.593-7.568-2.663-11.072-.14s-4.415,6.587-1.962,8.97c2.383,2.383,7.358,2.453,11.072.14C63.068,340.5,63.979,336.505,61.387,333.843ZM7.218,330.549c3.224-3.364,3.854-8.129,1.4-10.582-2.1-2.1-5.746-1.682-8.619.911v12.964C2.242,334.053,4.975,332.861,7.218,330.549Zm28.03,28.03c4.064-2.523,5.4-6.587,2.943-9.04s-7.5-2.172-11.282.631-5.116,6.8-2.943,9.04C26.068,361.382,31.184,361.1,35.248,358.579ZM32.375,236.086a8.723,8.723,0,0,0,1.261,10.231c2.663,2.593,6.447,2.383,8.479-.491,2.1-2.873,1.472-7.428-1.261-10.161C38.121,232.863,34.337,233.073,32.375,236.086ZM2.733,352.9A4.049,4.049,0,0,0,0,351.782v10.511C3.574,359.14,4.835,355.006,2.733,352.9Zm36.65,36.72c-2.172-2.172-7.989-2.242-13.034-.14s-7.568,5.326-5.676,7.148c1.892,1.892,7.708,1.962,13.034.14C39.032,395.019,41.625,391.8,39.383,389.623ZM27.19,377.43c-2.172-2.172-7.638-1.892-12.263.631-4.555,2.523-6.727,6.167-4.835,8.059s7.358,1.612,12.193-.631C27.26,383.246,29.432,379.6,27.19,377.43ZM64.82,298.314a7.3,7.3,0,0,0-10.091-.14c-2.8,2.663-3.083,6.867-.491,9.46,2.523,2.593,7.078,2.593,10.091.14A6.329,6.329,0,0,0,64.82,298.314ZM60.756,29.222c.35-.841-.35-2.453-1.472-3.574s-2.313-1.331-2.593-.491.35,2.453,1.472,3.574C59.214,29.852,60.406,30.063,60.756,29.222ZM54.1,257.74a7.314,7.314,0,0,0,.7,9.67,6.286,6.286,0,0,0,9.04.14c2.383-2.593,2.1-6.867-.7-9.671C60.406,255.077,56.341,255.007,54.1,257.74Zm6.1-112.682c1.121-2.032.07-5.606-2.313-7.989s-5.116-2.523-6.167-.491c-1.051,2.1,0,5.676,2.313,7.919C56.341,146.95,59.074,147.16,60.2,145.058ZM37.911,162.3c-1.261,2.523-.21,6.587,2.313,9.04s5.606,2.523,6.938.07.28-6.517-2.313-9.04S39.173,159.844,37.911,162.3ZM51.156,58.233c.561-1.331-.42-3.854-2.1-5.536s-3.5-1.892-3.994-.491.42,3.854,2.1,5.536S50.595,59.635,51.156,58.233ZM49.193,372.525c4.485-2.1,6.167-5.746,3.714-8.2s-7.849-2.523-12.053-.14-5.886,6.027-3.714,8.2S44.709,374.627,49.193,372.525ZM58.163,222c1.822-2.523,1.051-6.727-1.612-9.39-2.733-2.663-6.237-2.733-7.919-.07s-.981,6.867,1.612,9.46C52.767,224.454,56.341,224.524,58.163,222Zm10.441,170c-5.045,1.542-7.428,4.485-5.256,6.657s8.2,2.873,13.525,1.612,7.708-4.2,5.256-6.657C79.747,391.235,73.72,390.464,68.6,392.006Zm-1.051-12.964c-2.453-2.453-8.129-2.8-12.824-.911-4.625,1.962-6.657,5.256-4.485,7.428s7.919,2.593,12.824.911S70.006,381.424,67.553,379.042ZM95.724,368.39c-2.593-2.593-8.129-3.294-12.4-1.542s-5.816,5.116-3.434,7.5,7.919,3.083,12.4,1.542S98.317,370.983,95.724,368.39ZM85.493,280.164c-2.8-2.8-7.078-3.083-9.671-.7a6.171,6.171,0,0,0,.14,9.04,7.389,7.389,0,0,0,9.671.7C88.3,286.962,88.3,282.9,85.493,280.164Zm-9.6,79.256c4.134-1.962,5.326-5.606,2.733-8.269-2.593-2.593-7.849-3.013-11.773-.841s-5.116,5.886-2.733,8.269S71.758,361.312,75.892,359.42Zm8.689-41.275a8.55,8.55,0,0,0-10.722-.771c-3.223,2.313-3.714,6.237-1.191,8.83,2.523,2.523,7.358,2.873,10.722.771C86.754,324.8,87.315,320.878,84.582,318.145Zm123.4-141.9c.631-.561.21-1.892-.911-3.013s-2.523-1.612-3.153-1.051-.21,1.892.911,3.013S207.355,176.8,207.986,176.241ZM183.319,387.8c-4.134.771-5.4,3.5-2.873,6.1s8.059,4.135,12.333,3.5,5.536-3.364,2.873-6.1S187.454,386.96,183.319,387.8Zm10.161-29.852c-3.364.981-3.994,3.854-1.472,6.377a12.61,12.61,0,0,0,10.862,3.153c3.434-.841,4.134-3.714,1.472-6.377S196.844,357.038,193.48,357.949Zm4.975-34.9c-2.663,1.051-2.8,3.994-.35,6.447,2.453,2.523,6.727,3.714,9.46,2.733s2.943-3.924.35-6.517C205.323,323.191,201.118,321.93,198.456,323.051Zm1.822-77.084c1.542-.981,1.051-3.5-.981-5.536-2.1-2.1-4.905-2.943-6.447-1.892-1.472,1.051-1.051,3.5.981,5.536C195.933,246.107,198.736,246.948,200.277,245.967Zm-30.413,14.366c2.313,2.313,5.676,3.153,7.568,1.962,1.892-1.261,1.542-4.134-.841-6.517s-5.746-3.224-7.568-1.962C167.2,255.147,167.552,258.02,169.864,260.333Zm10.091,76.033c-2.663-2.663-7.288-3.854-10.371-2.593s-3.5,4.345-.911,6.938c2.523,2.593,7.218,3.784,10.371,2.593C182.2,342.182,182.618,339.1,179.955,336.365Zm-8.129-40.154c-2.453,1.331-2.383,4.415.07,6.938,2.523,2.523,6.517,3.5,9.04,2.313,2.523-1.261,2.453-4.345-.07-6.938S174.279,294.88,171.827,296.212ZM41.065,87.1c.7-1.822-.35-4.905-2.453-6.938-2.032-2.032-4.275-2.172-4.975-.35-.631,1.822.42,4.975,2.453,6.938C38.191,88.786,40.364,88.927,41.065,87.1ZM171.2,139.451c.561-.631.07-2.032-1.051-3.153s-2.523-1.542-3.013-.911c-.561.631-.07,2.032,1.051,3.153C169.234,139.662,170.635,140.082,171.2,139.451Zm-34.548,42.816c1.191-1.331.491-4.064-1.612-6.1-2.032-2.032-4.7-2.663-5.816-1.261-1.121,1.331-.42,4.134,1.612,6.1S135.457,183.6,136.648,182.268ZM188.5,195.232c.981-.841.491-2.943-1.191-4.625s-3.854-2.313-4.835-1.472c-.981.911-.42,3.013,1.191,4.625C185.281,195.512,187.454,196.143,188.5,195.232Zm-54.1-92.571c.491-.7-.07-2.172-1.191-3.294s-2.453-1.472-2.873-.771c-.491.7.07,2.172,1.191,3.294C132.584,103.012,133.915,103.362,134.406,102.661Zm53.678,15.557c.28-.28,0-1.051-.631-1.612-.631-.631-1.331-.841-1.542-.561-.28.28,0,1.051.561,1.612C187.1,118.288,187.8,118.5,188.084,118.218Zm10.161,164.959c-2.032,1.121-1.822,3.854.491,6.167s5.886,3.364,7.919,2.313c2.1-1.051,1.892-3.784-.491-6.167C203.851,283.107,200.277,282.056,198.245,283.178ZM10.652,214.433a10.025,10.025,0,0,0,1.822,10.722c2.593,2.593,6.167,2.1,7.919-1.051,1.752-3.224.911-7.989-1.822-10.792C15.837,210.649,12.263,211.139,10.652,214.433ZM143.306,377.36c-2.663-2.733-8.269-3.854-12.544-2.663-4.2,1.261-5.606,4.275-3.153,6.8,2.523,2.523,8.129,3.714,12.544,2.663S146.039,380.023,143.306,377.36Zm4.905-144.427c1.682-1.4,1.121-4.485-1.191-6.867-2.383-2.383-5.606-3.083-7.218-1.612s-1.051,4.555,1.191,6.867S146.459,234.4,148.211,232.933ZM9.6,173.789c1.261-3.083.07-7.708-2.593-10.371s-5.746-2.242-6.938.911c0,.07,0,.07-.07.14v5.466A10.308,10.308,0,0,0,2.663,174.7C5.256,177.222,8.339,176.872,9.6,173.789ZM150.313,354.3c3.644-1.261,4.415-4.555,1.682-7.288s-7.778-3.854-11.282-2.383c-3.5,1.4-4.275,4.7-1.682,7.358A11.835,11.835,0,0,0,150.313,354.3ZM11.072,135.807c-.981,2.733.21,7.008,2.733,9.46s5.4,2.313,6.517-.35c1.051-2.663-.14-6.938-2.733-9.46C15,132.864,12.123,133.075,11.072,135.807ZM9.25,55.71c.561-1.962-.7-5.186-2.733-7.218-2.1-2.032-4.134-2.032-4.7-.07-.491,2.032.7,5.256,2.733,7.218C6.657,57.6,8.689,57.673,9.25,55.71Zm7.568-31.464c.42-1.472-.631-4.064-2.313-5.746s-3.364-1.822-3.784-.28.631,4.064,2.313,5.746S16.4,25.718,16.818,24.246ZM162.086,366.218c-3.854,1.121-4.835,4.134-2.242,6.727s7.849,3.924,11.843,2.943c3.924-.981,4.975-3.994,2.242-6.727A13.177,13.177,0,0,0,162.086,366.218Zm-16.538-56.692c-2.8,1.542-2.943,4.835-.42,7.428s7.008,3.5,9.881,2.1,3.083-4.765.42-7.428S148.351,307.984,145.548,309.526Zm3.994,84.091c-4.555.911-6.307,3.644-3.784,6.167,2.453,2.523,8.339,3.994,13.1,3.294s6.447-3.434,3.784-6.167C159.984,394.248,154.167,392.777,149.542,393.617Zm18.921-179.535c1.331-1.121.771-3.784-1.331-5.816-2.032-2.032-4.835-2.8-6.1-1.612-1.331,1.191-.771,3.784,1.261,5.816C164.4,214.573,167.132,215.274,168.463,214.082ZM145.2,269.373c-2.172,1.542-1.962,4.835.561,7.358s6.377,3.364,8.619,1.892c2.313-1.472,2.032-4.765-.561-7.358S147.37,267.831,145.2,269.373ZM149.542,159.7c1.682,1.682,3.784,2.242,4.625,1.191.911-.981.28-3.153-1.472-4.905-1.682-1.682-3.784-2.242-4.625-1.191S147.861,158.022,149.542,159.7Zm-.771-80.728c.21-.35-.07-1.121-.7-1.682-.631-.631-1.261-.771-1.542-.491-.21.35.07,1.121.631,1.752C147.861,79.116,148.561,79.326,148.772,78.976Zm242.6,281.285c1.051-.21.911-1.191-.21-2.383a5.617,5.617,0,0,0-3.854-1.752c-.981.21-.911,1.191.21,2.313A4.753,4.753,0,0,0,391.375,360.261ZM277.221,403.078a3.449,3.449,0,0,0-3.013,1.612h10.3A14.249,14.249,0,0,0,277.221,403.078Zm4.345-153.186c.771-.42.491-1.612-.631-2.733s-2.663-1.752-3.434-1.331-.491,1.612.631,2.733S280.795,250.242,281.566,249.891ZM251.153,376.519c-3.153.561-3.714,3.083-1.261,5.606a13.63,13.63,0,0,0,10.3,3.574c3.224-.491,3.784-3.013,1.261-5.606C258.861,377.5,254.306,375.888,251.153,376.519ZM303.64,233.844c-.42.21-.21.841.42,1.472s1.4.911,1.752.7.21-.841-.42-1.472C304.831,233.914,304.06,233.634,303.64,233.844Zm-46.6,30.063c1.261-.631.911-2.523-.771-4.2s-4.064-2.523-5.326-1.892-.911,2.523.771,4.2S255.778,264.537,257.039,263.907Zm28.03,107.146c-2.663.491-2.943,2.733-.7,5.046s6.237,3.784,8.97,3.364c2.663-.42,3.013-2.663.7-5.045C291.727,372.1,287.662,370.633,285.07,371.053Zm2.593-37c-1.962.561-1.962,2.663.07,4.7s5.256,3.294,7.218,2.733c2.032-.491,1.962-2.593-.07-4.7C292.848,334.754,289.625,333.492,287.662,334.053Zm3.434-35.739c1.4-.491,1.191-2.313-.561-3.994-1.682-1.682-4.135-2.663-5.536-2.1-1.331.561-1.121,2.313.491,3.994C287.242,297.823,289.765,298.8,291.1,298.314Zm-73.86,83.811c-3.644.7-4.485,3.294-2.032,5.886a14.243,14.243,0,0,0,11.282,3.574c3.714-.561,4.625-3.223,2.032-5.886A13.909,13.909,0,0,0,217.236,382.125ZM256.2,302.238c-1.822.7-1.612,2.943.35,4.975,2.032,2.032,5.116,3.153,6.938,2.453s1.682-2.873-.35-4.975C261.1,302.659,258.02,301.537,256.2,302.238Zm-33.426-72.669c1.121-.771.7-2.733-.981-4.415s-3.994-2.453-5.116-1.682-.7,2.733.981,4.415C219.408,229.639,221.651,230.34,222.772,229.569Zm17.939-20.6c-.7.491-.35,1.752.771,2.873s2.593,1.682,3.294,1.191.35-1.752-.771-2.873S241.412,208.476,240.711,208.967ZM264.4,194.531c-.35.21-.14.911.491,1.542s1.4.911,1.682.631c.35-.21.14-.911-.491-1.472C265.518,194.6,264.747,194.321,264.4,194.531Zm-8.129,147.3c-2.453.7-2.593,3.083-.28,5.4,2.242,2.313,6.1,3.644,8.619,3.013s2.663-3.083.28-5.4C262.575,342.532,258.721,341.13,256.268,341.831ZM423.4,352.553a2.541,2.541,0,0,0-2.032-.911c-.491.07-.42.631.14,1.261a2.541,2.541,0,0,0,2.032.911C424.1,353.674,424.03,353.113,423.4,352.553Zm-70.356,8.269c-1.612.28-1.612,1.892.07,3.574s4.345,2.8,5.957,2.523,1.612-1.822-.07-3.574C357.318,361.663,354.655,360.542,353.043,360.822Zm33.847,34.267c-1.752.14-1.822,1.612-.21,3.294a9.09,9.09,0,0,0,6.167,2.733c1.752-.14,1.892-1.612.21-3.294A9.09,9.09,0,0,0,386.89,395.089Zm-4.7-82.76c-.491.14-.35.7.21,1.331a2.4,2.4,0,0,0,1.962.841c.491-.14.35-.7-.21-1.331C383.456,312.609,382.616,312.189,382.2,312.329ZM224.874,349.82c-2.873.841-3.294,3.5-.841,6.027s6.867,3.924,9.881,3.153,3.364-3.434.841-6.027C232.162,350.38,227.747,348.979,224.874,349.82ZM70.286.42a.447.447,0,0,0,0-.42H68.815c0,.07.07.07.07.14C69.515.7,70.076.841,70.286.42ZM423.82,392.987c-1.121.07-1.051,1.121.07,2.172a6.363,6.363,0,0,0,3.994,1.892c1.121-.07,1.121-1.051-.07-2.242A5.772,5.772,0,0,0,423.82,392.987Zm-110.09,7.288c-2.733.28-3.294,2.242-1.261,4.415h11.212a5.693,5.693,0,0,0-.631-.7C320.738,401.606,316.534,399.994,313.731,400.275Zm149.052-8.409a3.04,3.04,0,0,0-2.1-.981c-.561.07-.491.561.07,1.191a3.04,3.04,0,0,0,2.1.981C463.413,392.987,463.343,392.5,462.783,391.866Zm-143.8-26c-2.1.42-2.242,2.313-.21,4.345,1.962,2.032,5.4,3.364,7.568,3.013s2.313-2.312.28-4.345C324.522,366.848,321.159,365.447,318.986,365.867Zm-.771-79.186c.841-.35.631-1.472-.491-2.593s-2.733-1.752-3.574-1.472c-.841.35-.631,1.472.491,2.593C315.693,286.331,317.3,286.962,318.216,286.681Zm1.191,43.587c1.682,1.682,4.2,2.733,5.746,2.313s1.4-2.1-.28-3.784-4.275-2.733-5.746-2.312C317.585,326.9,317.725,328.657,319.407,330.269Zm30.833,67.343c-2.312.21-2.523,2.032-.561,4.064a12.354,12.354,0,0,0,5.466,3.013h3.5c1.261-.631,1.121-2.1-.561-3.784C356.057,398.873,352.553,397.331,350.24,397.612Zm-7.358-124.525c-.42.14-.28.771.35,1.4s1.4.981,1.822.771c.42-.14.28-.771-.35-1.4A2.273,2.273,0,0,0,342.882,273.087ZM354.8,323.471c.911-.21.771-1.331-.35-2.523-1.121-1.121-2.8-1.822-3.714-1.612s-.771,1.331.35,2.453C352.2,323.051,353.814,323.752,354.8,323.471ZM30.833,116.046c.911-2.242-.28-5.956-2.663-8.269s-4.975-2.383-5.816-.07.35,6.027,2.663,8.269S29.922,118.288,30.833,116.046Zm89,10.581c.771-1.121,0-3.434-1.682-5.116s-3.714-2.1-4.415-.981c-.771,1.121,0,3.434,1.682,5.116S119.059,127.749,119.83,126.628Zm-.42,123.684c2.523,2.523,6.167,3.153,8.2,1.4s1.612-5.186-.981-7.778-6.237-3.224-8.2-1.472C116.466,244.355,116.887,247.789,119.41,250.312Zm11.422,36.51c-2.663-2.663-6.938-3.434-9.46-1.612s-2.453,5.4.07,7.919c2.593,2.593,6.8,3.294,9.39,1.612C133.495,293.058,133.495,289.554,130.832,286.821Zm-11.983-83.25c1.472-1.612.771-4.835-1.612-7.218s-5.466-2.873-6.867-1.191c-1.472,1.682-.7,4.905,1.542,7.218C114.294,204.692,117.377,205.253,118.849,203.571Zm11.072,121.162c-2.733-2.733-7.568-3.574-10.722-1.822-3.224,1.752-3.644,5.326-1.051,7.919a10.048,10.048,0,0,0,10.722,1.822C132.234,331.11,132.654,327.536,129.921,324.733Zm-32.8-63.839c-2.242,2.1-1.962,5.886.631,8.479s6.587,3.083,8.97,1.121,2.1-5.746-.631-8.479C103.362,259.352,99.368,258.861,97.125,260.893Zm10.652,41.555c-2.733-2.8-7.288-3.364-10.231-1.261a5.412,5.412,0,0,0-.491,8.479,8.711,8.711,0,0,0,10.231,1.261C110.3,309.036,110.51,305.251,107.777,302.448Zm1.752-262.785c.21-.35-.14-1.191-.7-1.752-.631-.631-1.261-.771-1.472-.42-.21.42.14,1.191.7,1.822C108.688,39.873,109.319,40.084,109.529,39.663Zm-83.6,229.85a8.55,8.55,0,0,0-.771-10.722c-2.733-2.733-6.657-2.172-8.83,1.191-2.1,3.364-1.752,8.129.771,10.722C19.691,273.227,23.616,272.666,25.928,269.513Zm-1.682-81.218c-1.4,2.873-.491,7.358,2.1,9.881,2.593,2.593,5.886,2.383,7.428-.42s.561-7.218-2.1-9.881S25.718,185.421,24.246,188.294Zm97.125,176.872c4.064-1.4,5.186-4.765,2.523-7.5s-8.059-3.644-11.913-2.032-4.975,4.975-2.453,7.5C111.982,365.727,117.307,366.568,121.372,365.167ZM6.8,250.382A10.048,10.048,0,0,0,5.4,239.03,4.662,4.662,0,0,0,0,237.838v15.277C2.383,254.376,5.186,253.325,6.8,250.382ZM37.7,400.765c-3.434,1.051-5.886,2.523-6.727,3.924H51.716a2.12,2.12,0,0,0-.14-3.013C49.4,399.574,43.167,399.083,37.7,400.765Zm75.051-15.277c-2.593-2.593-8.409-3.574-13.1-2.242-4.625,1.4-6.517,4.415-4.134,6.8s8.2,3.364,13.1,2.172C113.453,391.095,115.345,388.081,112.752,385.489ZM99.3,149.472c2.032,2.032,4.485,2.453,5.536.981s.21-4.345-1.892-6.447c-2.1-2.032-4.555-2.523-5.536-.981S97.266,147.44,99.3,149.472Zm16.608,250.172c-4.345.841-6.517,2.943-5.606,5.045h20.392a3.307,3.307,0,0,0-1.051-2.172C127.118,399.994,120.951,398.663,115.906,399.644ZM1.542,87.1C2.032,85.283,1.4,82.62,0,80.377v8.479A2.337,2.337,0,0,0,1.542,87.1ZM74,198.175c1.542-2.172.7-6.027-1.892-8.619s-5.886-2.8-7.358-.561-.631,6.167,1.892,8.619C69.1,200.137,72.389,200.348,74,198.175Zm-1.051-79.466c.911-1.612-.07-4.625-2.172-6.657-2.032-2.032-4.415-2.383-5.256-.7s.14,4.7,2.172,6.727C69.726,120.04,72.108,120.321,72.949,118.709ZM232.022,277.782c1.682-.841,1.4-3.153-.7-5.256-2.032-2.1-5.046-3.013-6.727-2.172-1.612.841-1.331,3.224.7,5.256S230.34,278.623,232.022,277.782Zm-4.7-120.321c.28-.28.07-.981-.561-1.612s-1.331-.841-1.682-.631c-.28.28-.07.981.561,1.612S226.976,157.741,227.327,157.461ZM100.84,224.944c1.822-1.962,1.121-5.606-1.472-8.2s-6.1-3.013-7.778-.981-1.051,5.746,1.4,8.2C95.514,226.416,99.018,226.906,100.84,224.944Zm126.487,87.6c-2.242.911-2.242,3.5.07,5.816s5.956,3.5,8.269,2.663,2.242-3.434-.07-5.816S229.569,311.628,227.327,312.539ZM97.546,65.872c.42-.771-.21-2.313-1.331-3.434s-2.383-1.4-2.733-.631c-.42.771.21,2.313,1.331,3.434S97.2,66.642,97.546,65.872Zm-4.555,270.7c-3.574,1.962-4.345,5.606-1.822,8.129s7.568,3.153,11.282,1.4,4.555-5.4,1.822-8.129C101.61,335.244,96.495,334.613,92.991,336.575ZM81.078,165.87c-1.261,1.892-.35,5.326,1.962,7.568,2.313,2.313,5.256,2.663,6.517.841s.42-5.256-1.962-7.568C85.213,164.328,82.269,163.978,81.078,165.87Zm-8.2,70.777c-1.962,2.383-1.472,6.377,1.121,8.97s6.377,2.873,8.409.631c2.1-2.242,1.612-6.237-1.121-8.97C78.625,234.545,74.841,234.334,72.879,236.647ZM85.493,92.36c.631-1.261-.21-3.644-1.892-5.326S80.027,85,79.4,86.264s.21,3.644,1.892,5.326S84.862,93.622,85.493,92.36Z"/>
</svg>
