<svg xmlns="http://www.w3.org/2000/svg" viewBox="0 0 20.313 20.313">
  <defs>
    <style>
      .cls-1 {
        fill: #2b303a;
      }
    </style>
  </defs>
  <g id="Group_8" data-name="Group 8" transform="translate(-1426 -116)">
    <path id="Path_64" data-name="Path 64" class="cls-1" d="M14.261,0H6.051A6.058,6.058,0,0,0,0,6.051v8.21a6.058,6.058,0,0,0,6.051,6.051h8.21a6.058,6.058,0,0,0,6.051-6.051V6.051A6.058,6.058,0,0,0,14.261,0Zm4.008,14.261a4.008,4.008,0,0,1-4.008,4.008H6.051a4.008,4.008,0,0,1-4.008-4.008V6.051A4.008,4.008,0,0,1,6.051,2.043h8.21a4.008,4.008,0,0,1,4.008,4.008v8.21Z" transform="translate(1426 116)"/>
    <path id="Path_65" data-name="Path 65" class="cls-1" d="M138.254,133a5.254,5.254,0,1,0,5.254,5.254A5.26,5.26,0,0,0,138.254,133Zm0,8.464a3.21,3.21,0,1,1,3.21-3.21A3.21,3.21,0,0,1,138.254,141.464Z" transform="translate(1297.903 -12)"/>
    <circle id="Ellipse_4" data-name="Ellipse 4" class="cls-1" cx="1.259" cy="1.259" r="1.259" transform="translate(1440.161 120)"/>
  </g>
</svg>
