<svg xmlns="http://www.w3.org/2000/svg" viewBox="0 0 20.313 20.313">
  <defs>
    <style>
      .cls-1 {
        fill: #fff;
      }
    </style>
  </defs>
  <path id="_036-facebook" data-name="036-facebook" class="cls-1" d="M17.577,0H2.739A2.737,2.737,0,0,0,0,2.737V17.575a2.737,2.737,0,0,0,2.737,2.737h7.318l.012-7.259H8.184a.445.445,0,0,1-.445-.443l-.009-2.34a.445.445,0,0,1,.445-.447h1.882V7.564A3.694,3.694,0,0,1,14,3.511h1.921a.445.445,0,0,1,.445.445V5.929a.445.445,0,0,1-.445.445H14.742c-1.273,0-1.519.6-1.519,1.492V9.824h2.8a.445.445,0,0,1,.442.5l-.277,2.34a.445.445,0,0,1-.442.393H13.236l-.012,7.259h4.354a2.737,2.737,0,0,0,2.737-2.737V2.737A2.737,2.737,0,0,0,17.577,0Z" transform="translate(-0.002)"/>
</svg>
