<svg xmlns="http://www.w3.org/2000/svg" viewBox="0 0 20.313 20.313">
  <defs>
    <style>
      .cls-1 {
        fill: #fff;
      }
    </style>
  </defs>
  <path id="_027-linkedin" data-name="027-linkedin" class="cls-1" d="M18.475,0H1.837A1.837,1.837,0,0,0,0,1.837V18.475a1.837,1.837,0,0,0,1.837,1.838H18.475a1.837,1.837,0,0,0,1.838-1.838V1.837A1.837,1.837,0,0,0,18.475,0ZM6.286,17.539a.535.535,0,0,1-.535.535H3.475a.535.535,0,0,1-.535-.535V8a.535.535,0,0,1,.535-.535H5.751A.535.535,0,0,1,6.286,8ZM4.613,6.563A2.162,2.162,0,1,1,6.775,4.4,2.162,2.162,0,0,1,4.613,6.563ZM18.181,17.582a.492.492,0,0,1-.492.492H15.247a.492.492,0,0,1-.492-.492V13.107c0-.668.2-2.926-1.745-2.926-1.505,0-1.811,1.546-1.872,2.239v5.162a.492.492,0,0,1-.492.492H8.284a.492.492,0,0,1-.492-.492V7.955a.492.492,0,0,1,.492-.492h2.362a.492.492,0,0,1,.492.492v.832A3.353,3.353,0,0,1,14.292,7.3c3.911,0,3.889,3.654,3.889,5.662v4.618Z"/>
</svg>
