<svg xmlns="http://www.w3.org/2000/svg" viewBox="0 0 20.313 20.313">
  <defs>
    <style>
      .cls-1 {
        fill: #fff;
      }
    </style>
  </defs>
  <path id="_021-pinterest" data-name="021-pinterest" class="cls-1" d="M20.308,10.454A10.156,10.156,0,1,0,5.72,19.294a.287.287,0,0,0,.412-.269,7.635,7.635,0,0,1,.127-1.914c.129-.553.634-2.691.966-4.1a5.021,5.021,0,0,0,.051-2.084,4.265,4.265,0,0,1-.074-.789c0-1.5.87-2.622,1.953-2.622a1.356,1.356,0,0,1,1.366,1.521,21.748,21.748,0,0,1-.894,3.594,1.567,1.567,0,0,0,1.6,1.951c1.919,0,3.394-2.023,3.394-4.944a4.262,4.262,0,0,0-4.509-4.392A4.673,4.673,0,0,0,5.236,9.937a4.2,4.2,0,0,0,.8,2.464.323.323,0,0,1,.075.31c-.082.341-.264,1.074-.3,1.224-.047.2-.156.24-.361.144-1.348-.628-2.191-2.6-2.191-4.182,0-3.406,2.474-6.533,7.133-6.533A6.335,6.335,0,0,1,17.051,9.6c0,3.721-2.346,6.715-5.6,6.715a3.178,3.178,0,0,1-2.162-.828.27.27,0,0,0-.452.122c-.17.647-.444,1.693-.533,2.033a9.383,9.383,0,0,1-.831,1.946A.287.287,0,0,0,7.654,20a10.174,10.174,0,0,0,2.6.311A10.327,10.327,0,0,0,20.308,10.454Z" transform="translate(0 0)"/>
</svg>
