<svg xmlns="http://www.w3.org/2000/svg" viewBox="0 0 52.313 56.458">
  <defs>
    <style>
      .cls-1 {
        fill: #2b303a;
      }
    </style>
  </defs>
  <path id="Path_103" data-name="Path 103" class="cls-1" d="M26.156,11.129A14.782,14.782,0,0,0,11.391,25.895,16.831,16.831,0,0,0,18.375,39.3V49.958a.819.819,0,0,0,.078.353v.078a.611.611,0,0,0,.065.131L22.207,56a1.05,1.05,0,0,0,.863.458h6.094A1.032,1.032,0,0,0,30.027,56l3.688-5.48a1.215,1.215,0,0,0,.065-.131v-.078a1.713,1.713,0,0,0,.078-.353V39.3a16.831,16.831,0,0,0,6.984-13.405A14.825,14.825,0,0,0,26.156,11.129ZM28.641,54.4h-4.97L21.4,51.018H30.93Zm3.2-5.48H20.467V46.153H31.832ZM32.316,37.9a1.036,1.036,0,0,0-.471.876v5.31H20.467V38.711A1.036,1.036,0,0,0,20,37.835a14.694,14.694,0,0,1-6.513-11.966,12.671,12.671,0,0,1,25.332,0A14.664,14.664,0,0,1,32.3,37.874ZM36.54,25.842a1.046,1.046,0,0,1-2.092,0,7.873,7.873,0,0,0-7.873-7.873,1.046,1.046,0,1,1,0-2.092A9.963,9.963,0,0,1,36.54,25.842Zm-26.915,0a1.049,1.049,0,0,1-1.046,1.046H1.046a1.046,1.046,0,0,1,0-2.092H8.579a1.049,1.049,0,0,1,1.046,1.046Zm42.687,0a1.049,1.049,0,0,1-1.046,1.046H43.733a1.046,1.046,0,0,1,0-2.092h7.533A1.049,1.049,0,0,1,52.312,25.842Zm-39.326,11.7.118-.118a1.048,1.048,0,1,1,1.36,1.6L9.115,44.374,9,44.492a1.048,1.048,0,1,1-1.36-1.6l5.349-5.362ZM38.593,14.464a1.018,1.018,0,0,1-.745-.314,1.05,1.05,0,0,1,0-1.478L43.2,7.324a1.034,1.034,0,0,1,1.36,0A1.053,1.053,0,0,1,44.675,8.8L39.326,14.15a1.1,1.1,0,0,1-.732.314ZM44.675,42.9a1.581,1.581,0,0,1,.209.209A1.048,1.048,0,1,1,43.2,44.348L37.848,39l-.118-.118a1.048,1.048,0,0,1,1.6-1.36ZM7.638,8.8a1.034,1.034,0,0,1,0-1.36,1.053,1.053,0,0,1,1.478-.118l5.349,5.349a1.034,1.034,0,0,1,0,1.36,1.053,1.053,0,0,1-1.478.118Zm18.492.889a1.05,1.05,0,0,1-1.02-1.072V1.046a1.046,1.046,0,1,1,2.092,0v7.6a1.049,1.049,0,0,1-1.046,1.046Z"/>
</svg>
