<svg xmlns="http://www.w3.org/2000/svg" viewBox="0 0 56.458 56.458">
  <defs>
    <style>
      .cls-1 {
        fill: #2b303a;
      }
    </style>
  </defs>
  <path id="Path_104" data-name="Path 104" class="cls-1" d="M35.286,22.054a1.1,1.1,0,1,1-1.1-1.1A1.106,1.106,0,0,1,35.286,22.054ZM56.458,52.047a4.415,4.415,0,0,1-1.29,3.121,4.369,4.369,0,0,1-3.121,1.29,4.415,4.415,0,0,1-3.121-1.29L38.275,44.516h0l-4.069-4.069a21.855,21.855,0,0,1-12.152,3.661A22.054,22.054,0,1,1,44.108,22.054a21.855,21.855,0,0,1-3.661,12.152L55.168,48.927A4.415,4.415,0,0,1,56.458,52.047ZM39.135,42.255a26.9,26.9,0,0,0,3.121-3.121L39.124,36A22.558,22.558,0,0,1,36,39.124ZM22.054,41.9A19.663,19.663,0,0,0,33.687,38.12h0A19.881,19.881,0,0,0,41.9,22.054,19.849,19.849,0,1,0,22.054,41.9Zm32.2,10.145a2.168,2.168,0,0,0-.651-1.555L43.81,40.7a28.753,28.753,0,0,1-3.121,3.121l9.792,9.792a2.216,2.216,0,0,0,3.771-1.566ZM22.054,39.7A17.643,17.643,0,1,1,39.7,22.054,17.667,17.667,0,0,1,22.054,39.7ZM37.492,22.054A15.438,15.438,0,1,0,22.054,37.492,15.455,15.455,0,0,0,37.492,22.054Zm-3.716-3.308a1.1,1.1,0,0,0,.629-1.422,13.279,13.279,0,0,0-12.35-8.5,1.1,1.1,0,1,0,0,2.205,11.107,11.107,0,0,1,10.3,7.079,1.091,1.091,0,0,0,1.026.706A1,1,0,0,0,33.776,18.746Z"/>
</svg>
