<svg xmlns="http://www.w3.org/2000/svg" viewBox="0 0 58.395 56.458">
  <defs>
    <style>
      .cls-1 {
        fill: #2b303a;
      }
    </style>
  </defs>
  <path id="Path_102" data-name="Path 102" class="cls-1" d="M55.661,39.038a10.043,10.043,0,0,0-7.191-2.971,10.216,10.216,0,0,0-4.012.819l-10-10L47.734,13.717l3.137-.083a1.131,1.131,0,0,0,.916-.541l4.5-7.566a1.114,1.114,0,0,0-.167-1.36L52.232.278a1.112,1.112,0,0,0-1.36-.167l-7.566,4.5a1.1,1.1,0,0,0-.541.916l-.083,3.137L29.437,21.879,20.372,12.8A10.163,10.163,0,0,0,4.726,2.611a1.1,1.1,0,0,0-.292,1.541,1.123,1.123,0,0,0,.375.347L9.849,7.317c1.111.639,1.333,2.527.43,4.123s-2.624,2.416-3.748,1.8L1.866,10.7a1.12,1.12,0,0,0-1.513.444,1.135,1.135,0,0,0-.139.611,10.142,10.142,0,0,0,14.132,8.7l8.26,8.26-3.582,3.582L18.22,31.5a2.314,2.314,0,0,0-3.207,0L13.9,32.611a2.221,2.221,0,0,0-.125,3.054h0L.645,48.77a2.217,2.217,0,0,0-.069,3.137l.069.069,3.748,3.748a2.217,2.217,0,0,0,3.137.069l.069-.069L20.746,42.592h0a2.221,2.221,0,0,0,3.054-.125l1.111-1.111a2.217,2.217,0,0,0,.069-3.137l-.069-.069-.805-.805,3.554-3.637L38.433,44.48A10.152,10.152,0,0,0,55.7,53.267a1.116,1.116,0,0,0-.1-1.569,1.331,1.331,0,0,0-.4-.236l-6.247-1.68a2.027,2.027,0,0,1-1.3-1.277,4.141,4.141,0,0,1-.111-2.624c.472-1.749,1.944-2.985,3.193-2.652L56.924,44.9a1.29,1.29,0,0,0,1.43-1.1,1.179,1.179,0,0,0-.125-.528A10.431,10.431,0,0,0,55.661,39.038ZM44.555,9.9a1.113,1.113,0,0,0,.319-.75l.083-2.971,6.3-3.748L53.925,5.1,50.26,11.384l-3.026.111a1.151,1.151,0,0,0-.75.319L32.935,25.364l-1.916-1.916ZM6.031,54.156h0l-3.8-3.79,13.2-13.174,1.916,1.916L19.164,41ZM22.287,40.829h0l-1.472-1.472h0l-.569-.569L15.582,34.1l1.111-1.111,6.664,6.747Zm.208-5.067L20.58,33.846l3.582-3.582,1.916,1.916Zm28.792,5.345a4.147,4.147,0,0,0-1.013-.139,5.456,5.456,0,0,0-4.9,4.359,6.341,6.341,0,0,0,.208,4.054,4.236,4.236,0,0,0,2.79,2.554l4.137,1.111A7.938,7.938,0,0,1,40.723,44.4a1.085,1.085,0,0,0-.305-1.027L15.374,18.326a1.092,1.092,0,0,0-1.3-.153A7.963,7.963,0,0,1,2.88,13.855l2.527,1.416a3.921,3.921,0,0,0,1.93.5,5.815,5.815,0,0,0,4.845-3.165c1.513-2.693.916-5.914-1.3-7.149L7.641,3.624a7.948,7.948,0,0,1,10.148,4.8,8.035,8.035,0,0,1,.264,4.47,1.085,1.085,0,0,0,.305,1.027L43.444,39a1.1,1.1,0,0,0,1.3.194,7.962,7.962,0,0,1,10.564,3Z" transform="translate(0.041 0.047)"/>
</svg>
