<svg xmlns="http://www.w3.org/2000/svg" viewBox="0 0 58.919 56.458">
  <defs>
    <style>
      .cls-1 {
        fill: #2b303a;
      }
    </style>
  </defs>
  <path id="Path_101" data-name="Path 101" class="cls-1" d="M37.867,39.144V38.113a10.726,10.726,0,0,0,.836-.753,15.166,15.166,0,0,0,3.861-8.5A7.484,7.484,0,0,0,47.4,25.985c1.617-2.286,1.756-5.576.418-9.7a1.166,1.166,0,0,0-.446-.585l-.613-.418A15.163,15.163,0,0,0,43.15,5.1C40.139,1.729,35.539.028,29.433,0h0c-6.092,0-10.706,1.729-13.7,5.06a15.093,15.093,0,0,0-3.611,10.176l-.613.418a1.166,1.166,0,0,0-.446.585c-1.352,4.154-1.2,7.416.418,9.7a7.539,7.539,0,0,0,4.837,2.914,15.092,15.092,0,0,0,3.875,8.5,10.727,10.727,0,0,0,.836.753v1.032c-4.28.822-21.343,4.823-21.05,16.2a1.119,1.119,0,0,0,1.115,1.115H57.773a1.119,1.119,0,0,0,1.115-1.115C59.181,43.968,42.132,39.967,37.867,39.144Zm-24.535-14.5c-1.115-1.631-1.213-4.1-.223-7.347l.809-.544a1.089,1.089,0,0,0,.488-1.032,13.158,13.158,0,0,1,3.039-9.173c2.523-2.858,6.566-4.28,11.989-4.308s9.465,1.45,12.03,4.308A13.225,13.225,0,0,1,44.5,15.725a1.117,1.117,0,0,0,.488,1.032l.809.544c.99,3.248.92,5.716-.223,7.347a4.9,4.9,0,0,1-2.37,1.729A7.4,7.4,0,0,0,45.018,20.8a5.217,5.217,0,0,0-1.8-3.123C42.746,6.524,34.925,5.269,31.552,5.269a15.678,15.678,0,0,0-2.133.153,13.723,13.723,0,0,0-2.133-.153c-3.346,0-11.152,1.227-11.668,12.407a5.174,5.174,0,0,0-1.812,3.109,7.461,7.461,0,0,0,1.812,5.576,4.9,4.9,0,0,1-2.37-1.729ZM41,17.216a22.979,22.979,0,0,1-13.327-3.346,1.124,1.124,0,0,0-1.45.139c-2.23,2.4-6.3,2.955-8.267,3.081.6-7.89,5.381-9.6,9.4-9.6a10.919,10.919,0,0,1,1.91.153,1.2,1.2,0,0,0,.446,0,9.722,9.722,0,0,1,1.91-.153c3.987,0,8.782,1.756,9.34,9.716Zm-22.6,9.368a1.143,1.143,0,0,0-.279-.753c-1.533-1.756-2.23-3.346-2.035-4.656a2.912,2.912,0,0,1,1.018-1.882c1.478,0,6.691-.279,10.037-3.164a25.2,25.2,0,0,0,12.379,3.346,14.4,14.4,0,0,0,2.3-.125,2.924,2.924,0,0,1,1,1.826c.2,1.3-.516,2.914-2.035,4.656a1.143,1.143,0,0,0-.279.753v.585l-6.5,3.485a3.218,3.218,0,1,0,1,2.328v-.307l5.116-2.746a12.339,12.339,0,0,1-2.983,5.883,9.908,9.908,0,0,1-7.388,2.76H29.21a9.962,9.962,0,0,1-7.388-2.76c-3.527-3.513-3.443-9.2-3.443-9.256Zm14.372,6.4a.99.99,0,1,1-.99-.99h0A.976.976,0,0,1,32.778,32.983ZM28.318,54.172H2.249c.878-8.378,14.5-11.877,18.764-12.783v1.993c0,2.537,3.081,4.461,7.319,4.782ZM23.229,43.354v-3.82a13.557,13.557,0,0,0,5.925,1.255h.558a13.363,13.363,0,0,0,5.925-1.255v3.848c0,1.059-2.426,2.593-6.2,2.593s-6.2-1.533-6.2-2.593ZM30.548,54.2V48.15c4.238-.293,7.319-2.23,7.319-4.782V41.417C42.16,42.309,55.71,45.808,56.63,54.2Z" transform="translate(0.027)"/>
</svg>
